<?xml version="1.0" encoding="utf-8"?>
<!-- Generator: Adobe Illustrator 17.0.0, SVG Export Plug-In . SVG Version: 6.00 Build 0)  -->
<!DOCTYPE svg PUBLIC "-//W3C//DTD SVG 1.1//EN" "http://www.w3.org/Graphics/SVG/1.1/DTD/svg11.dtd">
<svg version="1.1" id="Capa_1" xmlns="http://www.w3.org/2000/svg" xmlns:xlink="http://www.w3.org/1999/xlink" x="0px" y="0px"
	 width="562px" height="224px" viewBox="0 0 562 224" enable-background="new 0 0 562 224" xml:space="preserve">
<g>
	<path fill="#282828" d="M448.277,12.89c-50.099,0-91.372,37.687-97.079,86.252h-58.289l70.023-70.023L346.634,12.82l-81.549,81.549
		L183.606,12.89L167.307,29.19l69.953,69.953H39.741V35.941h108.464V12.89H39.741H16.69h0v195.555h0h23.05h108.464v-23.051H39.741
		v-63.202h197.52l-69.953,69.953l16.299,16.299l81.479-81.479l81.714,81.714l16.299-16.299l-70.188-70.188h58.289
		c5.707,48.566,46.979,86.253,97.079,86.253c54.001,0,97.778-43.777,97.778-97.778C546.055,56.667,502.278,12.89,448.277,12.89z
		 M448.277,35.941c37.351,0,68.298,27.404,73.84,63.202h-147.68C379.979,63.345,410.926,35.941,448.277,35.941z M448.277,185.395
		c-37.351,0-68.298-27.404-73.84-63.202h147.68C516.575,157.991,485.628,185.395,448.277,185.395z"/>
</g>
</svg>
