<svg id="Capa_1" data-name="Capa 1" xmlns="http://www.w3.org/2000/svg" viewBox="0 0 415.66 417.07"><defs><style>.cls-1{fill:none;stroke:#4d4d4d;stroke-linecap:round;stroke-miterlimit:10;stroke-width:4.25px;}</style></defs><title>logo</title><line class="cls-1" x1="208.54" y1="3.54" x2="12.54" y2="273.54"/><line class="cls-1" x1="172.94" y1="6.65" x2="26.8" y2="306.58"/><line class="cls-1" x1="138.42" y1="15.9" x2="46.59" y2="336.65"/><line class="cls-1" x1="106.04" y1="31" x2="71.3" y2="362.83"/><line class="cls-1" x1="172.94" y1="6.65" x2="26.8" y2="306.58"/><line class="cls-1" x1="138.42" y1="15.9" x2="46.59" y2="336.65"/><line class="cls-1" x1="106.04" y1="31" x2="71.3" y2="362.83"/><line class="cls-1" x1="76.77" y1="51.5" x2="100.17" y2="384.32"/><line class="cls-1" x1="138.42" y1="15.9" x2="46.59" y2="336.65"/><line class="cls-1" x1="106.04" y1="31" x2="71.3" y2="362.83"/><line class="cls-1" x1="76.77" y1="51.5" x2="100.17" y2="384.32"/><line class="cls-1" x1="51.5" y1="76.77" x2="132.34" y2="400.46"/><line class="cls-1" x1="106.04" y1="31" x2="71.3" y2="362.83"/><line class="cls-1" x1="76.77" y1="51.5" x2="100.17" y2="384.32"/><line class="cls-1" x1="51.5" y1="76.77" x2="132.34" y2="400.46"/><line class="cls-1" x1="31" y1="106.04" x2="166.83" y2="410.78"/><line class="cls-1" x1="76.77" y1="51.5" x2="100.17" y2="384.32"/><line class="cls-1" x1="51.5" y1="76.77" x2="132.34" y2="400.46"/><line class="cls-1" x1="31" y1="106.04" x2="166.83" y2="410.78"/><line class="cls-1" x1="15.9" y1="138.42" x2="202.58" y2="414.95"/><line class="cls-1" x1="51.5" y1="76.77" x2="132.34" y2="400.46"/><line class="cls-1" x1="31" y1="106.04" x2="166.83" y2="410.78"/><line class="cls-1" x1="15.9" y1="138.42" x2="202.58" y2="414.95"/><line class="cls-1" x1="6.65" y1="172.94" x2="238.51" y2="412.85"/><line class="cls-1" x1="31" y1="106.04" x2="166.83" y2="410.78"/><line class="cls-1" x1="15.9" y1="138.42" x2="202.58" y2="414.95"/><line class="cls-1" x1="6.65" y1="172.94" x2="238.51" y2="412.85"/><line class="cls-1" x1="3.54" y1="208.54" x2="273.54" y2="404.54"/><line class="cls-1" x1="15.9" y1="138.42" x2="202.58" y2="414.95"/><line class="cls-1" x1="6.65" y1="172.94" x2="238.51" y2="412.85"/><line class="cls-1" x1="3.54" y1="208.54" x2="273.54" y2="404.54"/><line class="cls-1" x1="6.65" y1="244.13" x2="306.58" y2="390.27"/><line class="cls-1" x1="6.65" y1="172.94" x2="238.51" y2="412.85"/><line class="cls-1" x1="3.54" y1="208.54" x2="273.54" y2="404.54"/><line class="cls-1" x1="6.65" y1="244.13" x2="306.58" y2="390.27"/><line class="cls-1" x1="3.54" y1="208.54" x2="273.54" y2="404.54"/><line class="cls-1" x1="6.65" y1="244.13" x2="306.58" y2="390.27"/><line class="cls-1" x1="172.94" y1="6.65" x2="26.8" y2="306.58"/><line class="cls-1" x1="138.42" y1="15.9" x2="46.59" y2="336.65"/><line class="cls-1" x1="106.04" y1="31" x2="71.3" y2="362.83"/><line class="cls-1" x1="76.77" y1="51.5" x2="100.17" y2="384.32"/><line class="cls-1" x1="138.42" y1="15.9" x2="46.59" y2="336.65"/><line class="cls-1" x1="106.04" y1="31" x2="71.3" y2="362.83"/><line class="cls-1" x1="76.77" y1="51.5" x2="100.17" y2="384.32"/><line class="cls-1" x1="51.5" y1="76.77" x2="132.34" y2="400.46"/><line class="cls-1" x1="106.04" y1="31" x2="71.3" y2="362.83"/><line class="cls-1" x1="76.77" y1="51.5" x2="100.17" y2="384.32"/><line class="cls-1" x1="51.5" y1="76.77" x2="132.34" y2="400.46"/><line class="cls-1" x1="31" y1="106.04" x2="166.83" y2="410.78"/><line class="cls-1" x1="76.77" y1="51.5" x2="100.17" y2="384.32"/><line class="cls-1" x1="51.5" y1="76.77" x2="132.34" y2="400.46"/><line class="cls-1" x1="31" y1="106.04" x2="166.83" y2="410.78"/><line class="cls-1" x1="15.9" y1="138.42" x2="202.58" y2="414.95"/><line class="cls-1" x1="51.5" y1="76.77" x2="132.34" y2="400.46"/><line class="cls-1" x1="31" y1="106.04" x2="166.83" y2="410.78"/><line class="cls-1" x1="15.9" y1="138.42" x2="202.58" y2="414.95"/><line class="cls-1" x1="6.65" y1="172.94" x2="238.51" y2="412.85"/><line class="cls-1" x1="31" y1="106.04" x2="166.83" y2="410.78"/><line class="cls-1" x1="15.9" y1="138.42" x2="202.58" y2="414.95"/><line class="cls-1" x1="6.65" y1="172.94" x2="238.51" y2="412.85"/><line class="cls-1" x1="3.54" y1="208.54" x2="273.54" y2="404.54"/><line class="cls-1" x1="15.9" y1="138.42" x2="202.58" y2="414.95"/><line class="cls-1" x1="6.65" y1="172.94" x2="238.51" y2="412.85"/><line class="cls-1" x1="3.54" y1="208.54" x2="273.54" y2="404.54"/><line class="cls-1" x1="6.65" y1="244.13" x2="306.58" y2="390.27"/><line class="cls-1" x1="6.65" y1="172.94" x2="238.51" y2="412.85"/><line class="cls-1" x1="3.54" y1="208.54" x2="273.54" y2="404.54"/><line class="cls-1" x1="6.65" y1="244.13" x2="306.58" y2="390.27"/><line class="cls-1" x1="3.54" y1="208.54" x2="273.54" y2="404.54"/><line class="cls-1" x1="6.65" y1="244.13" x2="306.58" y2="390.27"/><line class="cls-1" x1="6.65" y1="244.13" x2="306.58" y2="390.27"/><line class="cls-1" x1="138.42" y1="15.9" x2="46.59" y2="336.65"/><line class="cls-1" x1="106.04" y1="31" x2="71.3" y2="362.83"/><line class="cls-1" x1="76.77" y1="51.5" x2="100.17" y2="384.32"/><line class="cls-1" x1="51.5" y1="76.77" x2="132.34" y2="400.46"/><line class="cls-1" x1="106.04" y1="31" x2="71.3" y2="362.83"/><line class="cls-1" x1="76.77" y1="51.5" x2="100.17" y2="384.32"/><line class="cls-1" x1="51.5" y1="76.77" x2="132.34" y2="400.46"/><line class="cls-1" x1="31" y1="106.04" x2="166.83" y2="410.78"/><line class="cls-1" x1="76.77" y1="51.5" x2="100.17" y2="384.32"/><line class="cls-1" x1="51.5" y1="76.77" x2="132.34" y2="400.46"/><line class="cls-1" x1="31" y1="106.04" x2="166.83" y2="410.78"/><line class="cls-1" x1="15.9" y1="138.42" x2="202.58" y2="414.95"/><line class="cls-1" x1="51.5" y1="76.77" x2="132.34" y2="400.46"/><line class="cls-1" x1="31" y1="106.04" x2="166.83" y2="410.78"/><line class="cls-1" x1="15.9" y1="138.42" x2="202.58" y2="414.95"/><line class="cls-1" x1="6.65" y1="172.94" x2="238.51" y2="412.85"/><line class="cls-1" x1="31" y1="106.04" x2="166.83" y2="410.78"/><line class="cls-1" x1="15.9" y1="138.42" x2="202.58" y2="414.95"/><line class="cls-1" x1="6.65" y1="172.94" x2="238.51" y2="412.85"/><line class="cls-1" x1="3.54" y1="208.54" x2="273.54" y2="404.54"/><line class="cls-1" x1="15.9" y1="138.42" x2="202.58" y2="414.95"/><line class="cls-1" x1="6.65" y1="172.94" x2="238.51" y2="412.85"/><line class="cls-1" x1="3.54" y1="208.54" x2="273.54" y2="404.54"/><line class="cls-1" x1="6.65" y1="244.13" x2="306.58" y2="390.27"/><line class="cls-1" x1="6.65" y1="172.94" x2="238.51" y2="412.85"/><line class="cls-1" x1="3.54" y1="208.54" x2="273.54" y2="404.54"/><line class="cls-1" x1="6.65" y1="244.13" x2="306.58" y2="390.27"/><line class="cls-1" x1="3.54" y1="208.54" x2="273.54" y2="404.54"/><line class="cls-1" x1="6.65" y1="244.13" x2="306.58" y2="390.27"/><line class="cls-1" x1="6.65" y1="244.13" x2="306.58" y2="390.27"/><line class="cls-1" x1="106.04" y1="31" x2="71.3" y2="362.83"/><line class="cls-1" x1="76.77" y1="51.5" x2="100.17" y2="384.32"/><line class="cls-1" x1="51.5" y1="76.77" x2="132.34" y2="400.46"/><line class="cls-1" x1="31" y1="106.04" x2="166.83" y2="410.78"/><line class="cls-1" x1="76.77" y1="51.5" x2="100.17" y2="384.32"/><line class="cls-1" x1="51.5" y1="76.77" x2="132.34" y2="400.46"/><line class="cls-1" x1="31" y1="106.04" x2="166.83" y2="410.78"/><line class="cls-1" x1="15.9" y1="138.42" x2="202.58" y2="414.95"/><line class="cls-1" x1="51.5" y1="76.77" x2="132.34" y2="400.46"/><line class="cls-1" x1="31" y1="106.04" x2="166.83" y2="410.78"/><line class="cls-1" x1="15.9" y1="138.42" x2="202.58" y2="414.95"/><line class="cls-1" x1="6.65" y1="172.94" x2="238.51" y2="412.85"/><line class="cls-1" x1="31" y1="106.04" x2="166.83" y2="410.78"/><line class="cls-1" x1="15.9" y1="138.42" x2="202.58" y2="414.95"/><line class="cls-1" x1="6.65" y1="172.94" x2="238.51" y2="412.85"/><line class="cls-1" x1="3.54" y1="208.54" x2="273.54" y2="404.54"/><line class="cls-1" x1="15.9" y1="138.42" x2="202.58" y2="414.95"/><line class="cls-1" x1="6.65" y1="172.94" x2="238.51" y2="412.85"/><line class="cls-1" x1="3.54" y1="208.54" x2="273.54" y2="404.54"/><line class="cls-1" x1="6.65" y1="244.13" x2="306.58" y2="390.27"/><line class="cls-1" x1="6.65" y1="172.94" x2="238.51" y2="412.85"/><line class="cls-1" x1="3.54" y1="208.54" x2="273.54" y2="404.54"/><line class="cls-1" x1="6.65" y1="244.13" x2="306.58" y2="390.27"/><line class="cls-1" x1="3.54" y1="208.54" x2="273.54" y2="404.54"/><line class="cls-1" x1="6.65" y1="244.13" x2="306.58" y2="390.27"/><line class="cls-1" x1="6.65" y1="244.13" x2="306.58" y2="390.27"/><line class="cls-1" x1="76.77" y1="51.5" x2="100.17" y2="384.32"/><line class="cls-1" x1="51.5" y1="76.77" x2="132.34" y2="400.46"/><line class="cls-1" x1="31" y1="106.04" x2="166.83" y2="410.78"/><line class="cls-1" x1="15.9" y1="138.42" x2="202.58" y2="414.95"/><line class="cls-1" x1="51.5" y1="76.77" x2="132.34" y2="400.46"/><line class="cls-1" x1="31" y1="106.04" x2="166.83" y2="410.78"/><line class="cls-1" x1="15.9" y1="138.42" x2="202.58" y2="414.95"/><line class="cls-1" x1="6.65" y1="172.94" x2="238.51" y2="412.85"/><line class="cls-1" x1="31" y1="106.04" x2="166.83" y2="410.78"/><line class="cls-1" x1="15.9" y1="138.42" x2="202.58" y2="414.95"/><line class="cls-1" x1="6.65" y1="172.94" x2="238.51" y2="412.85"/><line class="cls-1" x1="3.54" y1="208.54" x2="273.54" y2="404.54"/><line class="cls-1" x1="15.9" y1="138.42" x2="202.58" y2="414.95"/><line class="cls-1" x1="6.65" y1="172.94" x2="238.51" y2="412.85"/><line class="cls-1" x1="3.54" y1="208.54" x2="273.54" y2="404.54"/><line class="cls-1" x1="6.65" y1="244.13" x2="306.58" y2="390.27"/><line class="cls-1" x1="6.65" y1="172.94" x2="238.51" y2="412.85"/><line class="cls-1" x1="3.54" y1="208.54" x2="273.54" y2="404.54"/><line class="cls-1" x1="6.65" y1="244.13" x2="306.58" y2="390.27"/><line class="cls-1" x1="3.54" y1="208.54" x2="273.54" y2="404.54"/><line class="cls-1" x1="6.65" y1="244.13" x2="306.58" y2="390.27"/><line class="cls-1" x1="6.65" y1="244.13" x2="306.58" y2="390.27"/><line class="cls-1" x1="51.5" y1="76.77" x2="132.34" y2="400.46"/><line class="cls-1" x1="31" y1="106.04" x2="166.83" y2="410.78"/><line class="cls-1" x1="15.9" y1="138.42" x2="202.58" y2="414.95"/><line class="cls-1" x1="6.65" y1="172.94" x2="238.51" y2="412.85"/><line class="cls-1" x1="31" y1="106.04" x2="166.83" y2="410.78"/><line class="cls-1" x1="15.9" y1="138.42" x2="202.58" y2="414.95"/><line class="cls-1" x1="6.65" y1="172.94" x2="238.51" y2="412.85"/><line class="cls-1" x1="3.54" y1="208.54" x2="273.54" y2="404.54"/><line class="cls-1" x1="15.9" y1="138.42" x2="202.58" y2="414.95"/><line class="cls-1" x1="6.65" y1="172.94" x2="238.51" y2="412.85"/><line class="cls-1" x1="3.54" y1="208.54" x2="273.54" y2="404.54"/><line class="cls-1" x1="6.65" y1="244.13" x2="306.58" y2="390.27"/><line class="cls-1" x1="6.65" y1="172.94" x2="238.51" y2="412.85"/><line class="cls-1" x1="3.54" y1="208.54" x2="273.54" y2="404.54"/><line class="cls-1" x1="6.65" y1="244.13" x2="306.58" y2="390.27"/><line class="cls-1" x1="3.54" y1="208.54" x2="273.54" y2="404.54"/><line class="cls-1" x1="6.65" y1="244.13" x2="306.58" y2="390.27"/><line class="cls-1" x1="6.65" y1="244.13" x2="306.58" y2="390.27"/><line class="cls-1" x1="31" y1="106.04" x2="166.83" y2="410.78"/><line class="cls-1" x1="15.9" y1="138.42" x2="202.58" y2="414.95"/><line class="cls-1" x1="6.65" y1="172.94" x2="238.51" y2="412.85"/><line class="cls-1" x1="3.54" y1="208.54" x2="273.54" y2="404.54"/><line class="cls-1" x1="15.9" y1="138.42" x2="202.58" y2="414.95"/><line class="cls-1" x1="6.65" y1="172.94" x2="238.51" y2="412.85"/><line class="cls-1" x1="3.54" y1="208.54" x2="273.54" y2="404.54"/><line class="cls-1" x1="6.65" y1="244.13" x2="306.58" y2="390.27"/><line class="cls-1" x1="6.65" y1="172.94" x2="238.51" y2="412.85"/><line class="cls-1" x1="3.54" y1="208.54" x2="273.54" y2="404.54"/><line class="cls-1" x1="6.65" y1="244.13" x2="306.58" y2="390.27"/><line class="cls-1" x1="3.54" y1="208.54" x2="273.54" y2="404.54"/><line class="cls-1" x1="6.65" y1="244.13" x2="306.58" y2="390.27"/><line class="cls-1" x1="6.65" y1="244.13" x2="306.58" y2="390.27"/><line class="cls-1" x1="15.9" y1="138.42" x2="202.58" y2="414.95"/><line class="cls-1" x1="6.65" y1="172.94" x2="238.51" y2="412.85"/><line class="cls-1" x1="3.54" y1="208.54" x2="273.54" y2="404.54"/><line class="cls-1" x1="6.65" y1="244.13" x2="306.58" y2="390.27"/><line class="cls-1" x1="6.65" y1="172.94" x2="238.51" y2="412.85"/><line class="cls-1" x1="3.54" y1="208.54" x2="273.54" y2="404.54"/><line class="cls-1" x1="6.65" y1="244.13" x2="306.58" y2="390.27"/><line class="cls-1" x1="3.54" y1="208.54" x2="273.54" y2="404.54"/><line class="cls-1" x1="6.65" y1="244.13" x2="306.58" y2="390.27"/><line class="cls-1" x1="6.65" y1="244.13" x2="306.58" y2="390.27"/><line class="cls-1" x1="6.65" y1="172.94" x2="238.51" y2="412.85"/><line class="cls-1" x1="3.54" y1="208.54" x2="273.54" y2="404.54"/><line class="cls-1" x1="6.65" y1="244.13" x2="306.58" y2="390.27"/><line class="cls-1" x1="3.54" y1="208.54" x2="273.54" y2="404.54"/><line class="cls-1" x1="6.65" y1="244.13" x2="306.58" y2="390.27"/><line class="cls-1" x1="6.65" y1="244.13" x2="306.58" y2="390.27"/><line class="cls-1" x1="3.54" y1="208.54" x2="273.54" y2="404.54"/><line class="cls-1" x1="6.65" y1="244.13" x2="306.58" y2="390.27"/><line class="cls-1" x1="6.65" y1="244.13" x2="306.58" y2="390.27"/><line class="cls-1" x1="6.65" y1="244.13" x2="306.58" y2="390.27"/><line class="cls-1" x1="401.17" y1="278.65" x2="214.49" y2="2.13"/><line class="cls-1" x1="401.17" y1="278.65" x2="214.49" y2="2.13"/><line class="cls-1" x1="401.17" y1="278.65" x2="214.49" y2="2.13"/><line class="cls-1" x1="410.42" y1="244.13" x2="178.56" y2="4.23"/><line class="cls-1" x1="401.17" y1="278.65" x2="214.49" y2="2.13"/><line class="cls-1" x1="401.17" y1="278.65" x2="214.49" y2="2.13"/><line class="cls-1" x1="410.42" y1="244.13" x2="178.56" y2="4.23"/><line class="cls-1" x1="401.17" y1="278.65" x2="214.49" y2="2.13"/><line class="cls-1" x1="410.42" y1="244.13" x2="178.56" y2="4.23"/><line class="cls-1" x1="413.54" y1="208.54" x2="143.54" y2="12.54"/><line class="cls-1" x1="401.17" y1="278.65" x2="214.49" y2="2.13"/><line class="cls-1" x1="401.17" y1="278.65" x2="214.49" y2="2.13"/><line class="cls-1" x1="410.42" y1="244.13" x2="178.56" y2="4.23"/><line class="cls-1" x1="401.17" y1="278.65" x2="214.49" y2="2.13"/><line class="cls-1" x1="410.42" y1="244.13" x2="178.56" y2="4.23"/><line class="cls-1" x1="413.54" y1="208.54" x2="143.54" y2="12.54"/><line class="cls-1" x1="401.17" y1="278.65" x2="214.49" y2="2.13"/><line class="cls-1" x1="410.42" y1="244.13" x2="178.56" y2="4.23"/><line class="cls-1" x1="413.54" y1="208.54" x2="143.54" y2="12.54"/><line class="cls-1" x1="410.42" y1="172.94" x2="110.49" y2="26.8"/><line class="cls-1" x1="401.17" y1="278.65" x2="214.49" y2="2.13"/><line class="cls-1" x1="401.17" y1="278.65" x2="214.49" y2="2.13"/><line class="cls-1" x1="410.42" y1="244.13" x2="178.56" y2="4.23"/><line class="cls-1" x1="401.17" y1="278.65" x2="214.49" y2="2.13"/><line class="cls-1" x1="410.42" y1="244.13" x2="178.56" y2="4.23"/><line class="cls-1" x1="413.54" y1="208.54" x2="143.54" y2="12.54"/><line class="cls-1" x1="401.17" y1="278.65" x2="214.49" y2="2.13"/><line class="cls-1" x1="410.42" y1="244.13" x2="178.56" y2="4.23"/><line class="cls-1" x1="413.54" y1="208.54" x2="143.54" y2="12.54"/><line class="cls-1" x1="410.42" y1="172.94" x2="110.49" y2="26.8"/><line class="cls-1" x1="410.42" y1="244.13" x2="178.56" y2="4.23"/><line class="cls-1" x1="413.54" y1="208.54" x2="143.54" y2="12.54"/><line class="cls-1" x1="410.42" y1="172.94" x2="110.49" y2="26.8"/><line class="cls-1" x1="401.17" y1="138.42" x2="80.42" y2="46.59"/><line class="cls-1" x1="401.17" y1="278.65" x2="214.49" y2="2.13"/><line class="cls-1" x1="401.17" y1="278.65" x2="214.49" y2="2.13"/><line class="cls-1" x1="410.42" y1="244.13" x2="178.56" y2="4.23"/><line class="cls-1" x1="401.17" y1="278.65" x2="214.49" y2="2.13"/><line class="cls-1" x1="410.42" y1="244.13" x2="178.56" y2="4.23"/><line class="cls-1" x1="413.54" y1="208.54" x2="143.54" y2="12.54"/><line class="cls-1" x1="401.17" y1="278.65" x2="214.49" y2="2.13"/><line class="cls-1" x1="410.42" y1="244.13" x2="178.56" y2="4.23"/><line class="cls-1" x1="413.54" y1="208.54" x2="143.54" y2="12.54"/><line class="cls-1" x1="410.42" y1="172.94" x2="110.49" y2="26.8"/><line class="cls-1" x1="410.42" y1="244.13" x2="178.56" y2="4.23"/><line class="cls-1" x1="413.54" y1="208.54" x2="143.54" y2="12.54"/><line class="cls-1" x1="410.42" y1="172.94" x2="110.49" y2="26.8"/><line class="cls-1" x1="401.17" y1="138.42" x2="80.42" y2="46.59"/><line class="cls-1" x1="413.54" y1="208.54" x2="143.54" y2="12.54"/><line class="cls-1" x1="410.42" y1="172.94" x2="110.49" y2="26.8"/><line class="cls-1" x1="401.17" y1="138.42" x2="80.42" y2="46.59"/><line class="cls-1" x1="386.07" y1="106.04" x2="54.25" y2="71.3"/><line class="cls-1" x1="401.17" y1="278.65" x2="214.49" y2="2.13"/><line class="cls-1" x1="401.17" y1="278.65" x2="214.49" y2="2.13"/><line class="cls-1" x1="410.42" y1="244.13" x2="178.56" y2="4.23"/><line class="cls-1" x1="401.17" y1="278.65" x2="214.49" y2="2.13"/><line class="cls-1" x1="410.42" y1="244.13" x2="178.56" y2="4.23"/><line class="cls-1" x1="413.54" y1="208.54" x2="143.54" y2="12.54"/><line class="cls-1" x1="401.17" y1="278.65" x2="214.49" y2="2.13"/><line class="cls-1" x1="410.42" y1="244.13" x2="178.56" y2="4.23"/><line class="cls-1" x1="413.54" y1="208.54" x2="143.54" y2="12.54"/><line class="cls-1" x1="410.42" y1="172.94" x2="110.49" y2="26.8"/><line class="cls-1" x1="410.42" y1="244.13" x2="178.56" y2="4.23"/><line class="cls-1" x1="413.54" y1="208.54" x2="143.54" y2="12.54"/><line class="cls-1" x1="410.42" y1="172.94" x2="110.49" y2="26.8"/><line class="cls-1" x1="401.17" y1="138.42" x2="80.42" y2="46.59"/><line class="cls-1" x1="413.54" y1="208.54" x2="143.54" y2="12.54"/><line class="cls-1" x1="410.42" y1="172.94" x2="110.49" y2="26.8"/><line class="cls-1" x1="401.17" y1="138.42" x2="80.42" y2="46.59"/><line class="cls-1" x1="386.07" y1="106.04" x2="54.25" y2="71.3"/><line class="cls-1" x1="410.42" y1="172.94" x2="110.49" y2="26.8"/><line class="cls-1" x1="401.17" y1="138.42" x2="80.42" y2="46.59"/><line class="cls-1" x1="386.07" y1="106.04" x2="54.25" y2="71.3"/><line class="cls-1" x1="365.58" y1="76.77" x2="32.76" y2="100.17"/><line class="cls-1" x1="401.17" y1="278.65" x2="214.49" y2="2.13"/><line class="cls-1" x1="401.17" y1="278.65" x2="214.49" y2="2.13"/><line class="cls-1" x1="410.42" y1="244.13" x2="178.56" y2="4.23"/><line class="cls-1" x1="401.17" y1="278.65" x2="214.49" y2="2.13"/><line class="cls-1" x1="410.42" y1="244.13" x2="178.56" y2="4.23"/><line class="cls-1" x1="413.54" y1="208.54" x2="143.54" y2="12.54"/><line class="cls-1" x1="401.17" y1="278.65" x2="214.49" y2="2.13"/><line class="cls-1" x1="410.42" y1="244.13" x2="178.56" y2="4.23"/><line class="cls-1" x1="413.54" y1="208.54" x2="143.54" y2="12.54"/><line class="cls-1" x1="410.42" y1="172.94" x2="110.49" y2="26.8"/><line class="cls-1" x1="410.42" y1="244.13" x2="178.56" y2="4.23"/><line class="cls-1" x1="413.54" y1="208.54" x2="143.54" y2="12.54"/><line class="cls-1" x1="410.42" y1="172.94" x2="110.49" y2="26.8"/><line class="cls-1" x1="401.17" y1="138.42" x2="80.42" y2="46.59"/><line class="cls-1" x1="413.54" y1="208.54" x2="143.54" y2="12.54"/><line class="cls-1" x1="410.42" y1="172.94" x2="110.49" y2="26.8"/><line class="cls-1" x1="401.17" y1="138.42" x2="80.42" y2="46.59"/><line class="cls-1" x1="386.07" y1="106.04" x2="54.25" y2="71.3"/><line class="cls-1" x1="410.42" y1="172.94" x2="110.49" y2="26.8"/><line class="cls-1" x1="401.17" y1="138.42" x2="80.42" y2="46.59"/><line class="cls-1" x1="386.07" y1="106.04" x2="54.25" y2="71.3"/><line class="cls-1" x1="365.58" y1="76.77" x2="32.76" y2="100.17"/><line class="cls-1" x1="401.17" y1="138.42" x2="80.42" y2="46.59"/><line class="cls-1" x1="386.07" y1="106.04" x2="54.25" y2="71.3"/><line class="cls-1" x1="365.58" y1="76.77" x2="32.76" y2="100.17"/><line class="cls-1" x1="340.31" y1="51.5" x2="16.61" y2="132.34"/><line class="cls-1" x1="401.17" y1="278.65" x2="214.49" y2="2.13"/><line class="cls-1" x1="401.17" y1="278.65" x2="214.49" y2="2.13"/><line class="cls-1" x1="410.42" y1="244.13" x2="178.56" y2="4.23"/><line class="cls-1" x1="401.17" y1="278.65" x2="214.49" y2="2.13"/><line class="cls-1" x1="410.42" y1="244.13" x2="178.56" y2="4.23"/><line class="cls-1" x1="413.54" y1="208.54" x2="143.54" y2="12.54"/><line class="cls-1" x1="401.17" y1="278.65" x2="214.49" y2="2.13"/><line class="cls-1" x1="410.42" y1="244.13" x2="178.56" y2="4.23"/><line class="cls-1" x1="413.54" y1="208.54" x2="143.54" y2="12.54"/><line class="cls-1" x1="410.42" y1="172.94" x2="110.49" y2="26.8"/><line class="cls-1" x1="410.42" y1="244.13" x2="178.56" y2="4.23"/><line class="cls-1" x1="413.54" y1="208.54" x2="143.54" y2="12.54"/><line class="cls-1" x1="410.42" y1="172.94" x2="110.49" y2="26.8"/><line class="cls-1" x1="401.17" y1="138.42" x2="80.42" y2="46.59"/><line class="cls-1" x1="413.54" y1="208.54" x2="143.54" y2="12.54"/><line class="cls-1" x1="410.42" y1="172.94" x2="110.49" y2="26.8"/><line class="cls-1" x1="401.17" y1="138.42" x2="80.42" y2="46.59"/><line class="cls-1" x1="386.07" y1="106.04" x2="54.25" y2="71.3"/><line class="cls-1" x1="410.42" y1="172.94" x2="110.49" y2="26.8"/><line class="cls-1" x1="401.17" y1="138.42" x2="80.42" y2="46.59"/><line class="cls-1" x1="386.07" y1="106.04" x2="54.25" y2="71.3"/><line class="cls-1" x1="365.58" y1="76.77" x2="32.76" y2="100.17"/><line class="cls-1" x1="401.17" y1="138.42" x2="80.42" y2="46.59"/><line class="cls-1" x1="386.07" y1="106.04" x2="54.25" y2="71.3"/><line class="cls-1" x1="365.58" y1="76.77" x2="32.76" y2="100.17"/><line class="cls-1" x1="340.31" y1="51.5" x2="16.61" y2="132.34"/><line class="cls-1" x1="386.07" y1="106.04" x2="54.25" y2="71.3"/><line class="cls-1" x1="365.58" y1="76.77" x2="32.76" y2="100.17"/><line class="cls-1" x1="340.31" y1="51.5" x2="16.61" y2="132.34"/><line class="cls-1" x1="311.04" y1="31" x2="6.3" y2="166.83"/><line class="cls-1" x1="401.17" y1="278.65" x2="214.49" y2="2.13"/><line class="cls-1" x1="401.17" y1="278.65" x2="214.49" y2="2.13"/><line class="cls-1" x1="410.42" y1="244.13" x2="178.56" y2="4.23"/><line class="cls-1" x1="401.17" y1="278.65" x2="214.49" y2="2.13"/><line class="cls-1" x1="410.42" y1="244.13" x2="178.56" y2="4.23"/><line class="cls-1" x1="413.54" y1="208.54" x2="143.54" y2="12.54"/><line class="cls-1" x1="401.17" y1="278.65" x2="214.49" y2="2.13"/><line class="cls-1" x1="410.42" y1="244.13" x2="178.56" y2="4.23"/><line class="cls-1" x1="413.54" y1="208.54" x2="143.54" y2="12.54"/><line class="cls-1" x1="410.42" y1="172.94" x2="110.49" y2="26.8"/><line class="cls-1" x1="410.42" y1="244.13" x2="178.56" y2="4.23"/><line class="cls-1" x1="413.54" y1="208.54" x2="143.54" y2="12.54"/><line class="cls-1" x1="410.42" y1="172.94" x2="110.49" y2="26.8"/><line class="cls-1" x1="401.17" y1="138.42" x2="80.42" y2="46.59"/><line class="cls-1" x1="413.54" y1="208.54" x2="143.54" y2="12.54"/><line class="cls-1" x1="410.42" y1="172.94" x2="110.49" y2="26.8"/><line class="cls-1" x1="401.17" y1="138.42" x2="80.42" y2="46.59"/><line class="cls-1" x1="386.07" y1="106.04" x2="54.25" y2="71.3"/><line class="cls-1" x1="410.42" y1="172.94" x2="110.49" y2="26.8"/><line class="cls-1" x1="401.17" y1="138.42" x2="80.42" y2="46.59"/><line class="cls-1" x1="386.07" y1="106.04" x2="54.25" y2="71.3"/><line class="cls-1" x1="365.58" y1="76.77" x2="32.76" y2="100.17"/><line class="cls-1" x1="401.17" y1="138.42" x2="80.42" y2="46.59"/><line class="cls-1" x1="386.07" y1="106.04" x2="54.25" y2="71.3"/><line class="cls-1" x1="365.58" y1="76.77" x2="32.76" y2="100.17"/><line class="cls-1" x1="340.31" y1="51.5" x2="16.61" y2="132.34"/><line class="cls-1" x1="386.07" y1="106.04" x2="54.25" y2="71.3"/><line class="cls-1" x1="365.58" y1="76.77" x2="32.76" y2="100.17"/><line class="cls-1" x1="340.31" y1="51.5" x2="16.61" y2="132.34"/><line class="cls-1" x1="311.04" y1="31" x2="6.3" y2="166.83"/><line class="cls-1" x1="365.58" y1="76.77" x2="32.76" y2="100.17"/><line class="cls-1" x1="340.31" y1="51.5" x2="16.61" y2="132.34"/><line class="cls-1" x1="311.04" y1="31" x2="6.3" y2="166.83"/><line class="cls-1" x1="278.65" y1="15.9" x2="2.13" y2="202.58"/><line class="cls-1" x1="401.17" y1="278.65" x2="214.49" y2="2.13"/><line class="cls-1" x1="410.42" y1="244.13" x2="178.56" y2="4.23"/><line class="cls-1" x1="401.17" y1="278.65" x2="214.49" y2="2.13"/><line class="cls-1" x1="410.42" y1="244.13" x2="178.56" y2="4.23"/><line class="cls-1" x1="413.54" y1="208.54" x2="143.54" y2="12.54"/><line class="cls-1" x1="401.17" y1="278.65" x2="214.49" y2="2.13"/><line class="cls-1" x1="410.42" y1="244.13" x2="178.56" y2="4.23"/><line class="cls-1" x1="413.54" y1="208.54" x2="143.54" y2="12.54"/><line class="cls-1" x1="410.42" y1="172.94" x2="110.49" y2="26.8"/><line class="cls-1" x1="410.42" y1="244.13" x2="178.56" y2="4.23"/><line class="cls-1" x1="413.54" y1="208.54" x2="143.54" y2="12.54"/><line class="cls-1" x1="410.42" y1="172.94" x2="110.49" y2="26.8"/><line class="cls-1" x1="401.17" y1="138.42" x2="80.42" y2="46.59"/><line class="cls-1" x1="413.54" y1="208.54" x2="143.54" y2="12.54"/><line class="cls-1" x1="410.42" y1="172.94" x2="110.49" y2="26.8"/><line class="cls-1" x1="401.17" y1="138.42" x2="80.42" y2="46.59"/><line class="cls-1" x1="386.07" y1="106.04" x2="54.25" y2="71.3"/><line class="cls-1" x1="410.42" y1="172.94" x2="110.49" y2="26.8"/><line class="cls-1" x1="401.17" y1="138.42" x2="80.42" y2="46.59"/><line class="cls-1" x1="386.07" y1="106.04" x2="54.25" y2="71.3"/><line class="cls-1" x1="365.58" y1="76.77" x2="32.76" y2="100.17"/><line class="cls-1" x1="401.17" y1="138.42" x2="80.42" y2="46.59"/><line class="cls-1" x1="386.07" y1="106.04" x2="54.25" y2="71.3"/><line class="cls-1" x1="365.58" y1="76.77" x2="32.76" y2="100.17"/><line class="cls-1" x1="340.31" y1="51.5" x2="16.61" y2="132.34"/><line class="cls-1" x1="386.07" y1="106.04" x2="54.25" y2="71.3"/><line class="cls-1" x1="365.58" y1="76.77" x2="32.76" y2="100.17"/><line class="cls-1" x1="340.31" y1="51.5" x2="16.61" y2="132.34"/><line class="cls-1" x1="311.04" y1="31" x2="6.3" y2="166.83"/><line class="cls-1" x1="365.58" y1="76.77" x2="32.76" y2="100.17"/><line class="cls-1" x1="340.31" y1="51.5" x2="16.61" y2="132.34"/><line class="cls-1" x1="311.04" y1="31" x2="6.3" y2="166.83"/><line class="cls-1" x1="278.65" y1="15.9" x2="2.13" y2="202.58"/><line class="cls-1" x1="340.31" y1="51.5" x2="16.61" y2="132.34"/><line class="cls-1" x1="311.04" y1="31" x2="6.3" y2="166.83"/><line class="cls-1" x1="278.65" y1="15.9" x2="2.13" y2="202.58"/><line class="cls-1" x1="244.13" y1="6.65" x2="4.23" y2="238.51"/><line class="cls-1" x1="401.17" y1="278.65" x2="214.49" y2="2.13"/><line class="cls-1" x1="410.42" y1="244.13" x2="178.56" y2="4.23"/><line class="cls-1" x1="413.54" y1="208.54" x2="143.54" y2="12.54"/><line class="cls-1" x1="401.17" y1="278.65" x2="214.49" y2="2.13"/><line class="cls-1" x1="410.42" y1="244.13" x2="178.56" y2="4.23"/><line class="cls-1" x1="413.54" y1="208.54" x2="143.54" y2="12.54"/><line class="cls-1" x1="410.42" y1="172.94" x2="110.49" y2="26.8"/><line class="cls-1" x1="410.42" y1="244.13" x2="178.56" y2="4.23"/><line class="cls-1" x1="413.54" y1="208.54" x2="143.54" y2="12.54"/><line class="cls-1" x1="410.42" y1="172.94" x2="110.49" y2="26.8"/><line class="cls-1" x1="401.17" y1="138.42" x2="80.42" y2="46.59"/><line class="cls-1" x1="413.54" y1="208.54" x2="143.54" y2="12.54"/><line class="cls-1" x1="410.42" y1="172.94" x2="110.49" y2="26.8"/><line class="cls-1" x1="401.17" y1="138.42" x2="80.42" y2="46.59"/><line class="cls-1" x1="386.07" y1="106.04" x2="54.25" y2="71.3"/><line class="cls-1" x1="410.42" y1="172.94" x2="110.49" y2="26.8"/><line class="cls-1" x1="401.17" y1="138.42" x2="80.42" y2="46.59"/><line class="cls-1" x1="386.07" y1="106.04" x2="54.25" y2="71.3"/><line class="cls-1" x1="365.58" y1="76.77" x2="32.76" y2="100.17"/><line class="cls-1" x1="401.17" y1="138.42" x2="80.42" y2="46.59"/><line class="cls-1" x1="386.07" y1="106.04" x2="54.25" y2="71.3"/><line class="cls-1" x1="365.58" y1="76.77" x2="32.76" y2="100.17"/><line class="cls-1" x1="340.31" y1="51.5" x2="16.61" y2="132.34"/><line class="cls-1" x1="386.07" y1="106.04" x2="54.25" y2="71.3"/><line class="cls-1" x1="365.58" y1="76.77" x2="32.76" y2="100.17"/><line class="cls-1" x1="340.31" y1="51.5" x2="16.61" y2="132.34"/><line class="cls-1" x1="311.04" y1="31" x2="6.3" y2="166.83"/><line class="cls-1" x1="365.58" y1="76.77" x2="32.76" y2="100.17"/><line class="cls-1" x1="340.31" y1="51.5" x2="16.61" y2="132.34"/><line class="cls-1" x1="311.04" y1="31" x2="6.3" y2="166.83"/><line class="cls-1" x1="278.65" y1="15.9" x2="2.13" y2="202.58"/><line class="cls-1" x1="340.31" y1="51.5" x2="16.61" y2="132.34"/><line class="cls-1" x1="311.04" y1="31" x2="6.3" y2="166.83"/><line class="cls-1" x1="278.65" y1="15.9" x2="2.13" y2="202.58"/><line class="cls-1" x1="244.13" y1="6.65" x2="4.23" y2="238.51"/><line class="cls-1" x1="311.04" y1="31" x2="6.3" y2="166.83"/><line class="cls-1" x1="278.65" y1="15.9" x2="2.13" y2="202.58"/><line class="cls-1" x1="244.13" y1="6.65" x2="4.23" y2="238.51"/><line class="cls-1" x1="208.54" y1="3.54" x2="12.54" y2="273.54"/><line class="cls-1" x1="401.17" y1="278.65" x2="214.49" y2="2.13"/><line class="cls-1" x1="410.42" y1="244.13" x2="178.56" y2="4.23"/><line class="cls-1" x1="413.54" y1="208.54" x2="143.54" y2="12.54"/><line class="cls-1" x1="410.42" y1="172.94" x2="110.49" y2="26.8"/><line class="cls-1" x1="410.42" y1="244.13" x2="178.56" y2="4.23"/><line class="cls-1" x1="413.54" y1="208.54" x2="143.54" y2="12.54"/><line class="cls-1" x1="410.42" y1="172.94" x2="110.49" y2="26.8"/><line class="cls-1" x1="401.17" y1="138.42" x2="80.42" y2="46.59"/><line class="cls-1" x1="413.54" y1="208.54" x2="143.54" y2="12.54"/><line class="cls-1" x1="410.42" y1="172.94" x2="110.49" y2="26.8"/><line class="cls-1" x1="401.17" y1="138.42" x2="80.42" y2="46.59"/><line class="cls-1" x1="386.07" y1="106.04" x2="54.25" y2="71.3"/><line class="cls-1" x1="410.42" y1="172.94" x2="110.49" y2="26.8"/><line class="cls-1" x1="401.17" y1="138.42" x2="80.42" y2="46.59"/><line class="cls-1" x1="386.07" y1="106.04" x2="54.25" y2="71.3"/><line class="cls-1" x1="365.58" y1="76.77" x2="32.76" y2="100.17"/><line class="cls-1" x1="401.17" y1="138.42" x2="80.42" y2="46.59"/><line class="cls-1" x1="386.07" y1="106.04" x2="54.25" y2="71.3"/><line class="cls-1" x1="365.58" y1="76.77" x2="32.76" y2="100.17"/><line class="cls-1" x1="340.31" y1="51.5" x2="16.61" y2="132.34"/><line class="cls-1" x1="386.07" y1="106.04" x2="54.25" y2="71.3"/><line class="cls-1" x1="365.58" y1="76.77" x2="32.76" y2="100.17"/><line class="cls-1" x1="340.31" y1="51.5" x2="16.61" y2="132.34"/><line class="cls-1" x1="311.04" y1="31" x2="6.3" y2="166.83"/><line class="cls-1" x1="365.58" y1="76.77" x2="32.76" y2="100.17"/><line class="cls-1" x1="340.31" y1="51.5" x2="16.61" y2="132.34"/><line class="cls-1" x1="311.04" y1="31" x2="6.3" y2="166.83"/><line class="cls-1" x1="278.65" y1="15.9" x2="2.13" y2="202.58"/><line class="cls-1" x1="340.31" y1="51.5" x2="16.61" y2="132.34"/><line class="cls-1" x1="311.04" y1="31" x2="6.3" y2="166.83"/><line class="cls-1" x1="278.65" y1="15.9" x2="2.13" y2="202.58"/><line class="cls-1" x1="244.13" y1="6.65" x2="4.23" y2="238.51"/><line class="cls-1" x1="311.04" y1="31" x2="6.3" y2="166.83"/><line class="cls-1" x1="278.65" y1="15.9" x2="2.13" y2="202.58"/><line class="cls-1" x1="244.13" y1="6.65" x2="4.23" y2="238.51"/><line class="cls-1" x1="208.54" y1="3.54" x2="12.54" y2="273.54"/><line class="cls-1" x1="278.65" y1="15.9" x2="2.13" y2="202.58"/><line class="cls-1" x1="244.13" y1="6.65" x2="4.23" y2="238.51"/><line class="cls-1" x1="208.54" y1="3.54" x2="12.54" y2="273.54"/><line class="cls-1" x1="172.94" y1="6.65" x2="26.8" y2="306.58"/><line class="cls-1" x1="413.54" y1="208.54" x2="143.54" y2="12.54"/><line class="cls-1" x1="410.42" y1="172.94" x2="110.49" y2="26.8"/><line class="cls-1" x1="401.17" y1="138.42" x2="80.42" y2="46.59"/><line class="cls-1" x1="413.54" y1="208.54" x2="143.54" y2="12.54"/><line class="cls-1" x1="410.42" y1="172.94" x2="110.49" y2="26.8"/><line class="cls-1" x1="401.17" y1="138.42" x2="80.42" y2="46.59"/><line class="cls-1" x1="386.07" y1="106.04" x2="54.25" y2="71.3"/><line class="cls-1" x1="410.42" y1="172.94" x2="110.49" y2="26.8"/><line class="cls-1" x1="401.17" y1="138.42" x2="80.42" y2="46.59"/><line class="cls-1" x1="386.07" y1="106.04" x2="54.25" y2="71.3"/><line class="cls-1" x1="365.58" y1="76.77" x2="32.76" y2="100.17"/><line class="cls-1" x1="401.17" y1="138.42" x2="80.42" y2="46.59"/><line class="cls-1" x1="386.07" y1="106.04" x2="54.25" y2="71.3"/><line class="cls-1" x1="365.58" y1="76.77" x2="32.76" y2="100.17"/><line class="cls-1" x1="340.31" y1="51.5" x2="16.61" y2="132.34"/><line class="cls-1" x1="386.07" y1="106.04" x2="54.25" y2="71.3"/><line class="cls-1" x1="365.58" y1="76.77" x2="32.76" y2="100.17"/><line class="cls-1" x1="340.31" y1="51.5" x2="16.61" y2="132.34"/><line class="cls-1" x1="311.04" y1="31" x2="6.3" y2="166.83"/><line class="cls-1" x1="365.58" y1="76.77" x2="32.76" y2="100.17"/><line class="cls-1" x1="340.31" y1="51.5" x2="16.61" y2="132.34"/><line class="cls-1" x1="311.04" y1="31" x2="6.3" y2="166.83"/><line class="cls-1" x1="278.65" y1="15.9" x2="2.13" y2="202.58"/><line class="cls-1" x1="340.31" y1="51.5" x2="16.61" y2="132.34"/><line class="cls-1" x1="311.04" y1="31" x2="6.3" y2="166.83"/><line class="cls-1" x1="278.65" y1="15.9" x2="2.13" y2="202.58"/><line class="cls-1" x1="244.13" y1="6.65" x2="4.23" y2="238.51"/><line class="cls-1" x1="311.04" y1="31" x2="6.3" y2="166.83"/><line class="cls-1" x1="278.65" y1="15.9" x2="2.13" y2="202.58"/><line class="cls-1" x1="244.13" y1="6.65" x2="4.23" y2="238.51"/><line class="cls-1" x1="208.54" y1="3.54" x2="12.54" y2="273.54"/><line class="cls-1" x1="278.65" y1="15.9" x2="2.13" y2="202.58"/><line class="cls-1" x1="244.13" y1="6.65" x2="4.23" y2="238.51"/><line class="cls-1" x1="208.54" y1="3.54" x2="12.54" y2="273.54"/><line class="cls-1" x1="172.94" y1="6.65" x2="26.8" y2="306.58"/><line class="cls-1" x1="244.13" y1="6.65" x2="4.23" y2="238.51"/><line class="cls-1" x1="208.54" y1="3.54" x2="12.54" y2="273.54"/><line class="cls-1" x1="172.94" y1="6.65" x2="26.8" y2="306.58"/><line class="cls-1" x1="138.42" y1="15.9" x2="46.59" y2="336.65"/><line class="cls-1" x1="413.54" y1="208.54" x2="143.54" y2="12.54"/><line class="cls-1" x1="410.42" y1="172.94" x2="110.49" y2="26.8"/><line class="cls-1" x1="401.17" y1="138.42" x2="80.42" y2="46.59"/><line class="cls-1" x1="386.07" y1="106.04" x2="54.25" y2="71.3"/><line class="cls-1" x1="410.42" y1="172.94" x2="110.49" y2="26.8"/><line class="cls-1" x1="401.17" y1="138.42" x2="80.42" y2="46.59"/><line class="cls-1" x1="386.07" y1="106.04" x2="54.25" y2="71.3"/><line class="cls-1" x1="365.58" y1="76.77" x2="32.76" y2="100.17"/><line class="cls-1" x1="401.17" y1="138.42" x2="80.42" y2="46.59"/><line class="cls-1" x1="386.07" y1="106.04" x2="54.25" y2="71.3"/><line class="cls-1" x1="365.58" y1="76.77" x2="32.76" y2="100.17"/><line class="cls-1" x1="340.31" y1="51.5" x2="16.61" y2="132.34"/><line class="cls-1" x1="386.07" y1="106.04" x2="54.25" y2="71.3"/><line class="cls-1" x1="365.58" y1="76.77" x2="32.76" y2="100.17"/><line class="cls-1" x1="340.31" y1="51.5" x2="16.61" y2="132.34"/><line class="cls-1" x1="311.04" y1="31" x2="6.3" y2="166.83"/><line class="cls-1" x1="365.58" y1="76.77" x2="32.76" y2="100.17"/><line class="cls-1" x1="340.31" y1="51.5" x2="16.61" y2="132.34"/><line class="cls-1" x1="311.04" y1="31" x2="6.3" y2="166.83"/><line class="cls-1" x1="278.65" y1="15.9" x2="2.13" y2="202.58"/><line class="cls-1" x1="340.31" y1="51.5" x2="16.61" y2="132.34"/><line class="cls-1" x1="311.04" y1="31" x2="6.3" y2="166.83"/><line class="cls-1" x1="278.65" y1="15.9" x2="2.13" y2="202.58"/><line class="cls-1" x1="244.13" y1="6.65" x2="4.23" y2="238.51"/><line class="cls-1" x1="311.04" y1="31" x2="6.3" y2="166.83"/><line class="cls-1" x1="278.65" y1="15.9" x2="2.13" y2="202.58"/><line class="cls-1" x1="244.13" y1="6.65" x2="4.23" y2="238.51"/><line class="cls-1" x1="208.54" y1="3.54" x2="12.54" y2="273.54"/><line class="cls-1" x1="278.65" y1="15.9" x2="2.13" y2="202.58"/><line class="cls-1" x1="244.13" y1="6.65" x2="4.23" y2="238.51"/><line class="cls-1" x1="208.54" y1="3.54" x2="12.54" y2="273.54"/><line class="cls-1" x1="172.94" y1="6.65" x2="26.8" y2="306.58"/><line class="cls-1" x1="244.13" y1="6.65" x2="4.23" y2="238.51"/><line class="cls-1" x1="208.54" y1="3.54" x2="12.54" y2="273.54"/><line class="cls-1" x1="172.94" y1="6.65" x2="26.8" y2="306.58"/><line class="cls-1" x1="138.42" y1="15.9" x2="46.59" y2="336.65"/><line class="cls-1" x1="208.54" y1="3.54" x2="12.54" y2="273.54"/><line class="cls-1" x1="172.94" y1="6.65" x2="26.8" y2="306.58"/><line class="cls-1" x1="138.42" y1="15.9" x2="46.59" y2="336.65"/><line class="cls-1" x1="106.04" y1="31" x2="71.3" y2="362.83"/><line class="cls-1" x1="410.42" y1="172.94" x2="110.49" y2="26.8"/><line class="cls-1" x1="401.17" y1="138.42" x2="80.42" y2="46.59"/><line class="cls-1" x1="386.07" y1="106.04" x2="54.25" y2="71.3"/><line class="cls-1" x1="365.58" y1="76.77" x2="32.76" y2="100.17"/><line class="cls-1" x1="401.17" y1="138.42" x2="80.42" y2="46.59"/><line class="cls-1" x1="386.07" y1="106.04" x2="54.25" y2="71.3"/><line class="cls-1" x1="365.58" y1="76.77" x2="32.76" y2="100.17"/><line class="cls-1" x1="340.31" y1="51.5" x2="16.61" y2="132.34"/><line class="cls-1" x1="386.07" y1="106.04" x2="54.25" y2="71.3"/><line class="cls-1" x1="365.58" y1="76.77" x2="32.76" y2="100.17"/><line class="cls-1" x1="340.31" y1="51.5" x2="16.61" y2="132.34"/><line class="cls-1" x1="311.04" y1="31" x2="6.3" y2="166.83"/><line class="cls-1" x1="365.58" y1="76.77" x2="32.76" y2="100.17"/><line class="cls-1" x1="340.31" y1="51.5" x2="16.61" y2="132.34"/><line class="cls-1" x1="311.04" y1="31" x2="6.3" y2="166.83"/><line class="cls-1" x1="278.65" y1="15.9" x2="2.13" y2="202.58"/><line class="cls-1" x1="340.31" y1="51.5" x2="16.61" y2="132.34"/><line class="cls-1" x1="311.04" y1="31" x2="6.3" y2="166.83"/><line class="cls-1" x1="278.65" y1="15.9" x2="2.13" y2="202.58"/><line class="cls-1" x1="244.13" y1="6.65" x2="4.23" y2="238.51"/><line class="cls-1" x1="311.04" y1="31" x2="6.3" y2="166.83"/><line class="cls-1" x1="278.65" y1="15.9" x2="2.13" y2="202.58"/><line class="cls-1" x1="244.13" y1="6.65" x2="4.23" y2="238.51"/><line class="cls-1" x1="208.54" y1="3.54" x2="12.54" y2="273.54"/><line class="cls-1" x1="278.65" y1="15.9" x2="2.13" y2="202.58"/><line class="cls-1" x1="244.13" y1="6.65" x2="4.23" y2="238.51"/><line class="cls-1" x1="208.54" y1="3.54" x2="12.54" y2="273.54"/><line class="cls-1" x1="172.94" y1="6.65" x2="26.8" y2="306.58"/><line class="cls-1" x1="244.13" y1="6.65" x2="4.23" y2="238.51"/><line class="cls-1" x1="208.54" y1="3.54" x2="12.54" y2="273.54"/><line class="cls-1" x1="172.94" y1="6.65" x2="26.8" y2="306.58"/><line class="cls-1" x1="138.42" y1="15.9" x2="46.59" y2="336.65"/><line class="cls-1" x1="208.54" y1="3.54" x2="12.54" y2="273.54"/><line class="cls-1" x1="172.94" y1="6.65" x2="26.8" y2="306.58"/><line class="cls-1" x1="138.42" y1="15.9" x2="46.59" y2="336.65"/><line class="cls-1" x1="106.04" y1="31" x2="71.3" y2="362.83"/><line class="cls-1" x1="172.94" y1="6.65" x2="26.8" y2="306.58"/><line class="cls-1" x1="138.42" y1="15.9" x2="46.59" y2="336.65"/><line class="cls-1" x1="106.04" y1="31" x2="71.3" y2="362.83"/><line class="cls-1" x1="76.77" y1="51.5" x2="100.17" y2="384.32"/><circle class="cls-1" cx="205.54" cy="208.54" r="105"/></svg>