<svg xmlns="http://www.w3.org/2000/svg" xmlns:xlink="http://www.w3.org/1999/xlink" version="1.1" x="0px" y="0px" viewBox="0 0 100 125" style="enable-background:new 0 0 100 100;" xml:space="preserve"><g><path d="M51,31.5c-10.8,0-19.5,8.7-19.5,19.5S40.2,70.5,51,70.5c10.8,0,19.5-8.7,19.5-19.5S61.8,31.5,51,31.5z M51,69.5   c-10.2,0-18.5-8.3-18.5-18.5S40.8,32.5,51,32.5S69.5,40.8,69.5,51S61.2,69.5,51,69.5z"/><path d="M59.3,50.7H51V43c0-0.3-0.2-0.5-0.5-0.5S50,42.7,50,43v7.7h-7c-0.3,0-0.5,0.2-0.5,0.5s0.2,0.5,0.5,0.5h7v8   c0,0.3,0.2,0.5,0.5,0.5s0.5-0.2,0.5-0.5v-8h8.3c0.3,0,0.5-0.2,0.5-0.5S59.5,50.7,59.3,50.7z"/></g><text x="0" y="115" fill="#000000" font-size="5px" font-weight="bold" font-family="'Helvetica Neue', Helvetica, Arial-Unicode, Arial, Sans-serif">Created by Shastry</text><text x="0" y="120" fill="#000000" font-size="5px" font-weight="bold" font-family="'Helvetica Neue', Helvetica, Arial-Unicode, Arial, Sans-serif">from the Noun Project</text></svg>